<svg xmlns="http://www.w3.org/2000/svg" xmlns:svg="http://www.w3.org/2000/svg" id="Layer_1" width="88.9" height="76.082" x="0" y="0" version="1.1" viewBox="0 0 88.9 76.082" xml:space="preserve"><style id="style4890" type="text/css">.st0{fill:#a41e11}.st1{fill:#d82c20}.st2{fill:#fff}.st3{fill:#7a0c00}.st4{fill:#ad2115}</style><g id="g4914" transform="translate(-80.6,-11.940639)"><path style="fill:#a41e11" id="path4892" d="m 165.9,70.6 c -4.8,2.4 -29.2,12.6 -34.5,15.3 -5.3,2.7 -8.1,2.7 -12.2,0.7 -4.1,-2 -30.3,-12.5 -35,-14.7 -2.3,-1.1 -3.6,-2.1 -3.6,-3 0,-0.9 0,-9 0,-9 0,0 34,-7.4 39.5,-9.4 5.5,-2 7.4,-2.1 12.1,-0.4 4.7,1.7 32.6,6.8 37.2,8.5 0,0 0,8 0,8.8 0,1 -1.1,2 -3.5,3.2 z" class="st0"/><path style="fill:#d82c20" id="path4894" d="m 165.9,61.6 c -4.8,2.4 -29.2,12.6 -34.5,15.3 -5.3,2.7 -8.1,2.7 -12.2,0.7 -4.1,-2 -30.3,-12.5 -35,-14.7 -4.7,-2.2 -4.8,-3.8 -0.2,-5.6 4.6,-1.8 30.6,-12 36.1,-14 5.5,-2 7.4,-2.1 12.1,-0.4 4.7,1.7 29.1,11.4 33.7,13.1 4.5,1.8 4.7,3.2 0,5.6 z" class="st1"/><path style="fill:#a41e11" id="path4896" d="m 165.9,56 c -4.8,2.4 -29.2,12.6 -34.5,15.3 -5.2,2.7 -8.1,2.7 -12.2,0.7 -4.1,-2 -30.3,-12.5 -35,-14.7 -2.3,-1.1 -3.6,-2.1 -3.6,-3 0,-0.9 0,-9 0,-9 0,0 34,-7.4 39.5,-9.4 5.5,-2 7.4,-2.1 12.1,-0.4 4.7,1.7 32.6,6.8 37.2,8.5 0,0 0,8 0,8.8 0,1 -1.1,2 -3.5,3.2 z" class="st0"/><path style="fill:#d82c20" id="path4898" d="M 165.9,47 C 161.1,49.4 136.7,59.6 131.4,62.3 126.1,65 123.3,65 119.2,63 115.1,61 89,50.5 84.3,48.2 c -4.7,-2.3 -4.8,-3.8 -0.2,-5.6 4.6,-1.8 30.6,-12 36.1,-13.9 5.5,-1.9 7.4,-2.1 12.1,-0.4 4.7,1.7 29.1,11.4 33.7,13.1 4.4,1.8 4.6,3.1 -0.1,5.6 z" class="st1"/><path style="fill:#a41e11" id="path4900" d="m 165.9,40.8 c -4.8,2.4 -29.2,12.6 -34.5,15.3 -5.3,2.7 -8.1,2.7 -12.2,0.7 C 115.1,54.8 89,44.3 84.3,42 82,40.9 80.7,39.9 80.7,39 c 0,-0.9 0,-9 0,-9 0,0 34,-7.4 39.5,-9.4 5.5,-2 7.4,-2.1 12.1,-0.4 4.7,1.7 32.6,6.8 37.2,8.5 0,0 0,8 0,8.8 -0.1,1.1 -1.2,2.1 -3.6,3.3 z" class="st0"/><path style="fill:#d82c20" id="path4902" d="m 165.9,31.8 c -4.8,2.4 -29.2,12.6 -34.5,15.3 -5.3,2.7 -8.1,2.7 -12.2,0.7 C 115.1,45.8 89,35.3 84.3,33 c -4.7,-2.2 -4.9,-3.8 -0.2,-5.6 4.6,-1.8 30.6,-12 36.1,-13.9 5.5,-1.9 7.4,-2.1 12.1,-0.4 4.7,1.7 29.1,11.4 33.7,13.1 4.4,1.8 4.6,3.2 -0.1,5.6 z" class="st1"/><polygon style="fill:#fff" id="polygon4904" points="130.7 20.9 136.6 23.2 129 24 127.2 28.1 124.5 23.5 115.5 22.7 122.2 20.3 120.2 16.7 126.3 19.1 132.3 17.2" class="st2"/><polygon style="fill:#fff" id="polygon4906" points="133 34.2 126.8 43.3 112.4 37.3" class="st2"/><ellipse style="fill:#fff" id="ellipse4908" cx="106.8" cy="29.8" class="st2" rx="11" ry="4.2"/><polygon style="fill:#7a0c00" id="polygon4910" points="145.7 34 145.7 24.4 157.8 29.1" class="st3"/><polygon style="fill:#ad2115" id="polygon4912" points="144.4 34.4 132.3 29.7 145.7 24.4 145.7 34" class="st4"/></g></svg>